<mxfile host="app.diagrams.net" modified="2023-02-07T02:29:22.218Z" agent="5.0 (Windows NT 10.0; Win64; x64) AppleWebKit/537.36 (KHTML, like Gecko) Chrome/109.0.0.0 Safari/537.36" etag="V0s5mHyiC3tn8ruQkQFm" version="20.8.16" type="github">
  <diagram name="Page-1" id="qHy44vXVKrcRUO-8hmiV">
    <mxGraphModel dx="2284" dy="796" grid="1" gridSize="10" guides="1" tooltips="1" connect="1" arrows="1" fold="1" page="1" pageScale="1" pageWidth="850" pageHeight="1100" math="0" shadow="0">
      <root>
        <mxCell id="0" />
        <mxCell id="1" parent="0" />
        <object placeholders="1" c4Name="Infrastructure Microservice - API Application" c4Type="ContainerScopeBoundary" c4Application="Container" label="&lt;font style=&quot;font-size: 16px&quot;&gt;&lt;b&gt;&lt;div style=&quot;text-align: left&quot;&gt;%c4Name%&lt;/div&gt;&lt;/b&gt;&lt;/font&gt;&lt;div style=&quot;text-align: left&quot;&gt;[%c4Application%]&lt;/div&gt;" id="MDwMUKlnegiCK___1pbX-1">
          <mxCell style="rounded=1;fontSize=11;whiteSpace=wrap;html=1;dashed=1;arcSize=20;fillColor=none;strokeColor=#666666;fontColor=#333333;labelBackgroundColor=none;align=left;verticalAlign=bottom;labelBorderColor=none;spacingTop=0;spacing=10;dashPattern=8 4;metaEdit=1;rotatable=0;perimeter=rectanglePerimeter;noLabel=0;labelPadding=0;allowArrows=0;connectable=0;expand=0;recursiveResize=0;editable=1;pointerEvents=0;absoluteArcSize=1;points=[[0.25,0,0],[0.5,0,0],[0.75,0,0],[1,0.25,0],[1,0.5,0],[1,0.75,0],[0.75,1,0],[0.5,1,0],[0.25,1,0],[0,0.75,0],[0,0.5,0],[0,0.25,0]];" parent="1" vertex="1">
            <mxGeometry x="-140" y="390" width="1310" height="370" as="geometry" />
          </mxCell>
        </object>
        <mxCell id="MDwMUKlnegiCK___1pbX-2" style="edgeStyle=orthogonalEdgeStyle;rounded=0;orthogonalLoop=1;jettySize=auto;html=1;" parent="1" source="MDwMUKlnegiCK___1pbX-6" target="MDwMUKlnegiCK___1pbX-9" edge="1">
          <mxGeometry relative="1" as="geometry">
            <Array as="points">
              <mxPoint x="410" y="410" />
              <mxPoint x="320" y="410" />
            </Array>
          </mxGeometry>
        </mxCell>
        <mxCell id="MDwMUKlnegiCK___1pbX-3" value="Gọi API&lt;br style=&quot;border-color: var(--border-color);&quot;&gt;[API]" style="edgeLabel;html=1;align=center;verticalAlign=middle;resizable=0;points=[];" parent="MDwMUKlnegiCK___1pbX-2" vertex="1" connectable="0">
          <mxGeometry x="0.1186" relative="1" as="geometry">
            <mxPoint as="offset" />
          </mxGeometry>
        </mxCell>
        <mxCell id="MDwMUKlnegiCK___1pbX-4" style="edgeStyle=orthogonalEdgeStyle;rounded=0;orthogonalLoop=1;jettySize=auto;html=1;" parent="1" source="MDwMUKlnegiCK___1pbX-6" target="MDwMUKlnegiCK___1pbX-12" edge="1">
          <mxGeometry relative="1" as="geometry">
            <Array as="points">
              <mxPoint x="600" y="400" />
              <mxPoint x="690" y="400" />
            </Array>
          </mxGeometry>
        </mxCell>
        <mxCell id="MDwMUKlnegiCK___1pbX-5" value="Gọi API&lt;br style=&quot;border-color: var(--border-color);&quot;&gt;[API]" style="edgeLabel;html=1;align=center;verticalAlign=middle;resizable=0;points=[];" parent="MDwMUKlnegiCK___1pbX-4" vertex="1" connectable="0">
          <mxGeometry x="0.352" y="-2" relative="1" as="geometry">
            <mxPoint as="offset" />
          </mxGeometry>
        </mxCell>
        <mxCell id="Kk2GQ-iv0x4Vnoxwhd4I-5" style="edgeStyle=orthogonalEdgeStyle;rounded=0;orthogonalLoop=1;jettySize=auto;html=1;" edge="1" parent="1" source="MDwMUKlnegiCK___1pbX-6" target="Kk2GQ-iv0x4Vnoxwhd4I-3">
          <mxGeometry relative="1" as="geometry">
            <mxPoint x="500" y="560" as="targetPoint" />
            <Array as="points">
              <mxPoint x="530" y="490" />
              <mxPoint x="530" y="490" />
            </Array>
          </mxGeometry>
        </mxCell>
        <object placeholders="1" c4Type="Single-Page Application" c4Container="Container" c4Technology="Angular" c4Description="Người dùng tương tác với giao diện web browser này" label="&lt;font style=&quot;font-size: 16px&quot;&gt;&lt;b&gt;%c4Type%&lt;/b&gt;&lt;/font&gt;&lt;div&gt;[%c4Container%:&amp;nbsp;%c4Technology%]&lt;/div&gt;&lt;br&gt;&lt;div&gt;&lt;font style=&quot;font-size: 11px&quot;&gt;&lt;font color=&quot;#E6E6E6&quot;&gt;%c4Description%&lt;/font&gt;&lt;/div&gt;" id="MDwMUKlnegiCK___1pbX-6">
          <mxCell style="shape=mxgraph.c4.webBrowserContainer2;whiteSpace=wrap;html=1;boundedLbl=1;rounded=0;labelBackgroundColor=none;strokeColor=#118ACD;fillColor=#23A2D9;strokeColor=#118ACD;strokeColor2=#0E7DAD;fontSize=12;fontColor=#ffffff;align=center;metaEdit=1;points=[[0.5,0,0],[1,0.25,0],[1,0.5,0],[1,0.75,0],[0.5,1,0],[0,0.75,0],[0,0.5,0],[0,0.25,0]];resizable=0;" parent="1" vertex="1">
            <mxGeometry x="380" y="190" width="240" height="160" as="geometry" />
          </mxCell>
        </object>
        <mxCell id="MDwMUKlnegiCK___1pbX-7" style="edgeStyle=orthogonalEdgeStyle;rounded=0;orthogonalLoop=1;jettySize=auto;html=1;" parent="1" source="MDwMUKlnegiCK___1pbX-9" target="MDwMUKlnegiCK___1pbX-18" edge="1">
          <mxGeometry relative="1" as="geometry" />
        </mxCell>
        <mxCell id="MDwMUKlnegiCK___1pbX-8" value="Gọi&lt;br&gt;[Function Call]" style="edgeLabel;html=1;align=center;verticalAlign=middle;resizable=0;points=[];" parent="MDwMUKlnegiCK___1pbX-7" vertex="1" connectable="0">
          <mxGeometry x="0.1805" y="2" relative="1" as="geometry">
            <mxPoint x="15" y="-2" as="offset" />
          </mxGeometry>
        </mxCell>
        <object placeholders="1" c4Name="Cluster Controller" c4Type="Component" c4Technology="Java Spring" c4Description="Cung cấp cho người dùng thao tác liên quan tới cập nhật Cluster K8S" label="&lt;font style=&quot;font-size: 16px&quot;&gt;&lt;b&gt;%c4Name%&lt;/b&gt;&lt;/font&gt;&lt;div&gt;[%c4Type%: %c4Technology%]&lt;/div&gt;&lt;br&gt;&lt;div&gt;&lt;font style=&quot;font-size: 11px&quot;&gt;%c4Description%&lt;/font&gt;&lt;/div&gt;" id="MDwMUKlnegiCK___1pbX-9">
          <mxCell style="rounded=1;whiteSpace=wrap;html=1;labelBackgroundColor=none;fillColor=#63BEF2;fontColor=#ffffff;align=center;arcSize=6;strokeColor=#2086C9;metaEdit=1;resizable=0;points=[[0.25,0,0],[0.5,0,0],[0.75,0,0],[1,0.25,0],[1,0.5,0],[1,0.75,0],[0.75,1,0],[0.5,1,0],[0.25,1,0],[0,0.75,0],[0,0.5,0],[0,0.25,0]];" parent="1" vertex="1">
            <mxGeometry x="230" y="430" width="240" height="120" as="geometry" />
          </mxCell>
        </object>
        <mxCell id="MDwMUKlnegiCK___1pbX-10" style="edgeStyle=orthogonalEdgeStyle;rounded=0;orthogonalLoop=1;jettySize=auto;html=1;" parent="1" source="MDwMUKlnegiCK___1pbX-12" target="MDwMUKlnegiCK___1pbX-21" edge="1">
          <mxGeometry relative="1" as="geometry" />
        </mxCell>
        <mxCell id="MDwMUKlnegiCK___1pbX-11" value="Gọi&lt;br style=&quot;border-color: var(--border-color);&quot;&gt;[Function Call]" style="edgeLabel;html=1;align=center;verticalAlign=middle;resizable=0;points=[];" parent="MDwMUKlnegiCK___1pbX-10" vertex="1" connectable="0">
          <mxGeometry x="-0.2011" y="2" relative="1" as="geometry">
            <mxPoint as="offset" />
          </mxGeometry>
        </mxCell>
        <object placeholders="1" c4Name="Region Controller" c4Type="Component" c4Technology="Java Spring" c4Description="Cung cấp cho người dùng thao tác liên quan tới gửi thông tin Region" label="&lt;font style=&quot;font-size: 16px&quot;&gt;&lt;b&gt;%c4Name%&lt;/b&gt;&lt;/font&gt;&lt;div&gt;[%c4Type%: %c4Technology%]&lt;/div&gt;&lt;br&gt;&lt;div&gt;&lt;font style=&quot;font-size: 11px&quot;&gt;%c4Description%&lt;/font&gt;&lt;/div&gt;" id="MDwMUKlnegiCK___1pbX-12">
          <mxCell style="rounded=1;whiteSpace=wrap;html=1;labelBackgroundColor=none;fillColor=#63BEF2;fontColor=#ffffff;align=center;arcSize=6;strokeColor=#2086C9;metaEdit=1;resizable=0;points=[[0.25,0,0],[0.5,0,0],[0.75,0,0],[1,0.25,0],[1,0.5,0],[1,0.75,0],[0.75,1,0],[0.5,1,0],[0.25,1,0],[0,0.75,0],[0,0.5,0],[0,0.25,0]];" parent="1" vertex="1">
            <mxGeometry x="570" y="430" width="240" height="120" as="geometry" />
          </mxCell>
        </object>
        <object placeholders="1" c4Type="Database" c4Container="Container" c4Technology="MySQL" c4Description="MySQL Database Schema" label="&lt;font style=&quot;font-size: 16px&quot;&gt;&lt;b&gt;%c4Type%&lt;/b&gt;&lt;/font&gt;&lt;div&gt;[%c4Container%:&amp;nbsp;%c4Technology%]&lt;/div&gt;&lt;br&gt;&lt;div&gt;&lt;font style=&quot;font-size: 11px&quot;&gt;&lt;font color=&quot;#E6E6E6&quot;&gt;%c4Description%&lt;/font&gt;&lt;/div&gt;" id="MDwMUKlnegiCK___1pbX-13">
          <mxCell style="shape=cylinder3;size=15;whiteSpace=wrap;html=1;boundedLbl=1;rounded=0;labelBackgroundColor=none;fillColor=#23A2D9;fontSize=12;fontColor=#ffffff;align=center;strokeColor=#0E7DAD;metaEdit=1;points=[[0.5,0,0],[1,0.25,0],[1,0.5,0],[1,0.75,0],[0.5,1,0],[0,0.75,0],[0,0.5,0],[0,0.25,0]];resizable=0;" parent="1" vertex="1">
            <mxGeometry x="-110" y="810" width="240" height="120" as="geometry" />
          </mxCell>
        </object>
        <mxCell id="MDwMUKlnegiCK___1pbX-14" style="edgeStyle=orthogonalEdgeStyle;rounded=0;orthogonalLoop=1;jettySize=auto;html=1;" parent="1" source="MDwMUKlnegiCK___1pbX-18" target="MDwMUKlnegiCK___1pbX-13" edge="1">
          <mxGeometry relative="1" as="geometry">
            <Array as="points">
              <mxPoint x="-70" y="610" />
              <mxPoint x="-70" y="610" />
            </Array>
          </mxGeometry>
        </mxCell>
        <mxCell id="MDwMUKlnegiCK___1pbX-15" value="Cập nhật dữ liệu&lt;br style=&quot;border-color: var(--border-color);&quot;&gt;[Jdbc]" style="edgeLabel;html=1;align=center;verticalAlign=middle;resizable=0;points=[];" parent="MDwMUKlnegiCK___1pbX-14" vertex="1" connectable="0">
          <mxGeometry x="0.6658" y="-1" relative="1" as="geometry">
            <mxPoint x="-9" y="-157" as="offset" />
          </mxGeometry>
        </mxCell>
        <object placeholders="1" c4Name="Cluster Service" c4Type="Component" c4Technology="Java Spring" c4Description="Cung cấp thao tác liên quan tới cập nhật Cluster K8S" label="&lt;font style=&quot;font-size: 16px&quot;&gt;&lt;b&gt;%c4Name%&lt;/b&gt;&lt;/font&gt;&lt;div&gt;[%c4Type%: %c4Technology%]&lt;/div&gt;&lt;br&gt;&lt;div&gt;&lt;font style=&quot;font-size: 11px&quot;&gt;%c4Description%&lt;/font&gt;&lt;/div&gt;" id="MDwMUKlnegiCK___1pbX-18">
          <mxCell style="rounded=1;whiteSpace=wrap;html=1;labelBackgroundColor=none;fillColor=#63BEF2;fontColor=#ffffff;align=center;arcSize=6;strokeColor=#2086C9;metaEdit=1;resizable=0;points=[[0.25,0,0],[0.5,0,0],[0.75,0,0],[1,0.25,0],[1,0.5,0],[1,0.75,0],[0.75,1,0],[0.5,1,0],[0.25,1,0],[0,0.75,0],[0,0.5,0],[0,0.25,0]];" parent="1" vertex="1">
            <mxGeometry x="-120" y="430" width="240" height="120" as="geometry" />
          </mxCell>
        </object>
        <mxCell id="Kk2GQ-iv0x4Vnoxwhd4I-8" style="edgeStyle=orthogonalEdgeStyle;rounded=0;orthogonalLoop=1;jettySize=auto;html=1;" edge="1" parent="1" source="MDwMUKlnegiCK___1pbX-21" target="MDwMUKlnegiCK___1pbX-13">
          <mxGeometry relative="1" as="geometry">
            <Array as="points">
              <mxPoint x="1000" y="870" />
            </Array>
          </mxGeometry>
        </mxCell>
        <mxCell id="Kk2GQ-iv0x4Vnoxwhd4I-9" value="Cập nhật dữ liệu&lt;br style=&quot;border-color: var(--border-color);&quot;&gt;[Jdbc]" style="edgeLabel;html=1;align=center;verticalAlign=middle;resizable=0;points=[];" vertex="1" connectable="0" parent="Kk2GQ-iv0x4Vnoxwhd4I-8">
          <mxGeometry x="0.1204" y="2" relative="1" as="geometry">
            <mxPoint as="offset" />
          </mxGeometry>
        </mxCell>
        <object placeholders="1" c4Name="Region Service" c4Type="Component" c4Technology="Java Spring" c4Description="Cung cấp thao tác liên quan tới gửi thông tin Region" label="&lt;font style=&quot;font-size: 16px&quot;&gt;&lt;b&gt;%c4Name%&lt;/b&gt;&lt;/font&gt;&lt;div&gt;[%c4Type%: %c4Technology%]&lt;/div&gt;&lt;br&gt;&lt;div&gt;&lt;font style=&quot;font-size: 11px&quot;&gt;%c4Description%&lt;/font&gt;&lt;/div&gt;" id="MDwMUKlnegiCK___1pbX-21">
          <mxCell style="rounded=1;whiteSpace=wrap;html=1;labelBackgroundColor=none;fillColor=#63BEF2;fontColor=#ffffff;align=center;arcSize=6;strokeColor=#2086C9;metaEdit=1;resizable=0;points=[[0.25,0,0],[0.5,0,0],[0.75,0,0],[1,0.25,0],[1,0.5,0],[1,0.75,0],[0.75,1,0],[0.5,1,0],[0.25,1,0],[0,0.75,0],[0,0.5,0],[0,0.25,0]];" parent="1" vertex="1">
            <mxGeometry x="910" y="430" width="240" height="120" as="geometry" />
          </mxCell>
        </object>
        <mxCell id="Kk2GQ-iv0x4Vnoxwhd4I-1" style="edgeStyle=orthogonalEdgeStyle;rounded=0;orthogonalLoop=1;jettySize=auto;html=1;" edge="1" parent="1" source="Kk2GQ-iv0x4Vnoxwhd4I-3" target="Kk2GQ-iv0x4Vnoxwhd4I-4">
          <mxGeometry relative="1" as="geometry" />
        </mxCell>
        <mxCell id="Kk2GQ-iv0x4Vnoxwhd4I-2" value="Gọi&lt;br&gt;[Function Call]" style="edgeLabel;html=1;align=center;verticalAlign=middle;resizable=0;points=[];" vertex="1" connectable="0" parent="Kk2GQ-iv0x4Vnoxwhd4I-1">
          <mxGeometry x="0.1805" y="2" relative="1" as="geometry">
            <mxPoint x="11" y="-2" as="offset" />
          </mxGeometry>
        </mxCell>
        <object placeholders="1" c4Name="Cluster Controller" c4Type="Component" c4Technology="Java Spring" c4Description="Cung cấp cho người dùng thao tác liên quan tới cập nhật Cluster K8S" label="&lt;font style=&quot;font-size: 16px&quot;&gt;&lt;b&gt;%c4Name%&lt;/b&gt;&lt;/font&gt;&lt;div&gt;[%c4Type%: %c4Technology%]&lt;/div&gt;&lt;br&gt;&lt;div&gt;&lt;font style=&quot;font-size: 11px&quot;&gt;%c4Description%&lt;/font&gt;&lt;/div&gt;" id="Kk2GQ-iv0x4Vnoxwhd4I-3">
          <mxCell style="rounded=1;whiteSpace=wrap;html=1;labelBackgroundColor=none;fillColor=#63BEF2;fontColor=#ffffff;align=center;arcSize=6;strokeColor=#2086C9;metaEdit=1;resizable=0;points=[[0.25,0,0],[0.5,0,0],[0.75,0,0],[1,0.25,0],[1,0.5,0],[1,0.75,0],[0.75,1,0],[0.5,1,0],[0.25,1,0],[0,0.75,0],[0,0.5,0],[0,0.25,0]];" vertex="1" parent="1">
            <mxGeometry x="330" y="580" width="240" height="120" as="geometry" />
          </mxCell>
        </object>
        <mxCell id="Kk2GQ-iv0x4Vnoxwhd4I-6" style="edgeStyle=orthogonalEdgeStyle;rounded=0;orthogonalLoop=1;jettySize=auto;html=1;" edge="1" parent="1" source="Kk2GQ-iv0x4Vnoxwhd4I-4" target="MDwMUKlnegiCK___1pbX-13">
          <mxGeometry relative="1" as="geometry">
            <Array as="points">
              <mxPoint x="80" y="740" />
              <mxPoint x="80" y="740" />
            </Array>
          </mxGeometry>
        </mxCell>
        <mxCell id="Kk2GQ-iv0x4Vnoxwhd4I-7" value="Cập nhật dữ liệu&lt;br style=&quot;border-color: var(--border-color);&quot;&gt;[Jdbc]" style="edgeLabel;html=1;align=center;verticalAlign=middle;resizable=0;points=[];" vertex="1" connectable="0" parent="Kk2GQ-iv0x4Vnoxwhd4I-6">
          <mxGeometry x="0.3896" y="-1" relative="1" as="geometry">
            <mxPoint as="offset" />
          </mxGeometry>
        </mxCell>
        <object placeholders="1" c4Name="Cluster Service" c4Type="Component" c4Technology="Java Spring" c4Description="Cung cấp thao tác liên quan tới cập nhật Cluster K8S" label="&lt;font style=&quot;font-size: 16px&quot;&gt;&lt;b&gt;%c4Name%&lt;/b&gt;&lt;/font&gt;&lt;div&gt;[%c4Type%: %c4Technology%]&lt;/div&gt;&lt;br&gt;&lt;div&gt;&lt;font style=&quot;font-size: 11px&quot;&gt;%c4Description%&lt;/font&gt;&lt;/div&gt;" id="Kk2GQ-iv0x4Vnoxwhd4I-4">
          <mxCell style="rounded=1;whiteSpace=wrap;html=1;labelBackgroundColor=none;fillColor=#63BEF2;fontColor=#ffffff;align=center;arcSize=6;strokeColor=#2086C9;metaEdit=1;resizable=0;points=[[0.25,0,0],[0.5,0,0],[0.75,0,0],[1,0.25,0],[1,0.5,0],[1,0.75,0],[0.75,1,0],[0.5,1,0],[0.25,1,0],[0,0.75,0],[0,0.5,0],[0,0.25,0]];" vertex="1" parent="1">
            <mxGeometry x="-30" y="580" width="240" height="120" as="geometry" />
          </mxCell>
        </object>
      </root>
    </mxGraphModel>
  </diagram>
</mxfile>
